<mxfile host="app.diagrams.net" modified="2023-10-16T13:17:35.083Z" agent="Mozilla/5.0 (Windows NT 10.0; Win64; x64) AppleWebKit/537.36 (KHTML, like Gecko) Chrome/117.0.0.0 Safari/537.36" etag="_LfdSFh9kdgS17ksY2BB" version="22.0.4" type="github">
  <diagram id="C5RBs43oDa-KdzZeNtuy" name="Page-1">
    <mxGraphModel dx="794" dy="456" grid="1" gridSize="10" guides="1" tooltips="1" connect="1" arrows="1" fold="1" page="1" pageScale="1" pageWidth="827" pageHeight="1169" math="0" shadow="0">
      <root>
        <mxCell id="WIyWlLk6GJQsqaUBKTNV-0" />
        <mxCell id="WIyWlLk6GJQsqaUBKTNV-1" parent="WIyWlLk6GJQsqaUBKTNV-0" />
        <mxCell id="GWSl3uOo_rcqgH1IaLnA-26" style="edgeStyle=none;rounded=0;orthogonalLoop=1;jettySize=auto;html=1;verticalAlign=bottom;labelBackgroundColor=none;strokeColor=#0B4D6A;fontColor=default;" edge="1" parent="WIyWlLk6GJQsqaUBKTNV-1">
          <mxGeometry relative="1" as="geometry">
            <mxPoint x="228" y="156" as="targetPoint" />
            <mxPoint x="228.6052631578948" y="110" as="sourcePoint" />
          </mxGeometry>
        </mxCell>
        <mxCell id="GWSl3uOo_rcqgH1IaLnA-3" value="Star" style="rounded=1;whiteSpace=wrap;html=1;labelBackgroundColor=none;fillColor=#09555B;strokeColor=#BAC8D3;fontColor=#EEEEEE;" vertex="1" parent="WIyWlLk6GJQsqaUBKTNV-1">
          <mxGeometry x="169" y="49" width="120" height="60" as="geometry" />
        </mxCell>
        <mxCell id="GWSl3uOo_rcqgH1IaLnA-31" value="" style="edgeStyle=none;rounded=0;orthogonalLoop=1;jettySize=auto;html=1;labelBackgroundColor=none;strokeColor=#0B4D6A;fontColor=default;" edge="1" parent="WIyWlLk6GJQsqaUBKTNV-1" source="GWSl3uOo_rcqgH1IaLnA-7" target="GWSl3uOo_rcqgH1IaLnA-29">
          <mxGeometry relative="1" as="geometry" />
        </mxCell>
        <mxCell id="GWSl3uOo_rcqgH1IaLnA-36" value="" style="edgeStyle=none;rounded=0;orthogonalLoop=1;jettySize=auto;html=1;labelBackgroundColor=none;strokeColor=#0B4D6A;fontColor=default;" edge="1" parent="WIyWlLk6GJQsqaUBKTNV-1" source="GWSl3uOo_rcqgH1IaLnA-7" target="GWSl3uOo_rcqgH1IaLnA-33">
          <mxGeometry relative="1" as="geometry" />
        </mxCell>
        <mxCell id="GWSl3uOo_rcqgH1IaLnA-7" value="Angka &amp;lt; Tebakan" style="rhombus;whiteSpace=wrap;html=1;labelBackgroundColor=none;fillColor=#09555B;strokeColor=#BAC8D3;fontColor=#EEEEEE;" vertex="1" parent="WIyWlLk6GJQsqaUBKTNV-1">
          <mxGeometry x="175" y="156" width="106" height="110" as="geometry" />
        </mxCell>
        <mxCell id="GWSl3uOo_rcqgH1IaLnA-32" value="" style="edgeStyle=none;rounded=0;orthogonalLoop=1;jettySize=auto;html=1;labelBackgroundColor=none;strokeColor=#0B4D6A;fontColor=default;" edge="1" parent="WIyWlLk6GJQsqaUBKTNV-1" target="GWSl3uOo_rcqgH1IaLnA-30">
          <mxGeometry relative="1" as="geometry">
            <mxPoint x="228.6127789585546" y="419.59816684378313" as="sourcePoint" />
            <mxPoint x="228.38722104144517" y="451.40183315621675" as="targetPoint" />
          </mxGeometry>
        </mxCell>
        <mxCell id="GWSl3uOo_rcqgH1IaLnA-37" value="" style="edgeStyle=none;rounded=0;orthogonalLoop=1;jettySize=auto;html=1;labelBackgroundColor=none;strokeColor=#0B4D6A;fontColor=default;" edge="1" parent="WIyWlLk6GJQsqaUBKTNV-1" source="GWSl3uOo_rcqgH1IaLnA-29" target="GWSl3uOo_rcqgH1IaLnA-35">
          <mxGeometry relative="1" as="geometry" />
        </mxCell>
        <mxCell id="GWSl3uOo_rcqgH1IaLnA-29" value="Angka &amp;gt; Tebakan" style="rhombus;whiteSpace=wrap;html=1;labelBackgroundColor=none;fillColor=#09555B;strokeColor=#BAC8D3;fontColor=#EEEEEE;" vertex="1" parent="WIyWlLk6GJQsqaUBKTNV-1">
          <mxGeometry x="176" y="314" width="106" height="110" as="geometry" />
        </mxCell>
        <mxCell id="GWSl3uOo_rcqgH1IaLnA-38" value="" style="edgeStyle=none;rounded=0;orthogonalLoop=1;jettySize=auto;html=1;labelBackgroundColor=none;strokeColor=#0B4D6A;fontColor=default;" edge="1" parent="WIyWlLk6GJQsqaUBKTNV-1" source="GWSl3uOo_rcqgH1IaLnA-30" target="GWSl3uOo_rcqgH1IaLnA-34">
          <mxGeometry relative="1" as="geometry" />
        </mxCell>
        <mxCell id="GWSl3uOo_rcqgH1IaLnA-42" value="" style="edgeStyle=orthogonalEdgeStyle;rounded=0;orthogonalLoop=1;jettySize=auto;html=1;strokeColor=#0B4D6A;" edge="1" parent="WIyWlLk6GJQsqaUBKTNV-1" source="GWSl3uOo_rcqgH1IaLnA-30" target="GWSl3uOo_rcqgH1IaLnA-39">
          <mxGeometry relative="1" as="geometry" />
        </mxCell>
        <mxCell id="GWSl3uOo_rcqgH1IaLnA-30" value="Angka = Tebakan" style="rhombus;whiteSpace=wrap;html=1;labelBackgroundColor=none;fillColor=#09555B;strokeColor=#BAC8D3;fontColor=#EEEEEE;" vertex="1" parent="WIyWlLk6GJQsqaUBKTNV-1">
          <mxGeometry x="175" y="465" width="106" height="110" as="geometry" />
        </mxCell>
        <mxCell id="GWSl3uOo_rcqgH1IaLnA-33" value="Angka lebih kecil" style="shape=parallelogram;perimeter=parallelogramPerimeter;whiteSpace=wrap;html=1;fixedSize=1;labelBackgroundColor=none;fillColor=#09555B;strokeColor=#BAC8D3;fontColor=#EEEEEE;" vertex="1" parent="WIyWlLk6GJQsqaUBKTNV-1">
          <mxGeometry x="322" y="179" width="120" height="60" as="geometry" />
        </mxCell>
        <mxCell id="GWSl3uOo_rcqgH1IaLnA-44" value="" style="edgeStyle=orthogonalEdgeStyle;rounded=0;orthogonalLoop=1;jettySize=auto;html=1;strokeColor=#0B4D6A;entryX=1;entryY=1;entryDx=0;entryDy=0;" edge="1" parent="WIyWlLk6GJQsqaUBKTNV-1" source="GWSl3uOo_rcqgH1IaLnA-34" target="GWSl3uOo_rcqgH1IaLnA-39">
          <mxGeometry relative="1" as="geometry">
            <mxPoint x="382" y="630" as="targetPoint" />
            <Array as="points">
              <mxPoint x="390" y="688" />
            </Array>
          </mxGeometry>
        </mxCell>
        <mxCell id="GWSl3uOo_rcqgH1IaLnA-34" value="Benar" style="shape=parallelogram;perimeter=parallelogramPerimeter;whiteSpace=wrap;html=1;fixedSize=1;labelBackgroundColor=none;fillColor=#09555B;strokeColor=#BAC8D3;fontColor=#EEEEEE;" vertex="1" parent="WIyWlLk6GJQsqaUBKTNV-1">
          <mxGeometry x="322" y="490" width="120" height="60" as="geometry" />
        </mxCell>
        <mxCell id="GWSl3uOo_rcqgH1IaLnA-35" value="Angka lebih besar" style="shape=parallelogram;perimeter=parallelogramPerimeter;whiteSpace=wrap;html=1;fixedSize=1;labelBackgroundColor=none;fillColor=#09555B;strokeColor=#BAC8D3;fontColor=#EEEEEE;" vertex="1" parent="WIyWlLk6GJQsqaUBKTNV-1">
          <mxGeometry x="322" y="339" width="120" height="60" as="geometry" />
        </mxCell>
        <mxCell id="GWSl3uOo_rcqgH1IaLnA-39" value="End" style="ellipse;whiteSpace=wrap;html=1;aspect=fixed;strokeColor=#BAC8D3;fontColor=#EEEEEE;fillColor=#09555B;" vertex="1" parent="WIyWlLk6GJQsqaUBKTNV-1">
          <mxGeometry x="188" y="620" width="80" height="80" as="geometry" />
        </mxCell>
      </root>
    </mxGraphModel>
  </diagram>
</mxfile>
